<svg width="300" height="193" viewBox="0 0 300 193" fill="none" xmlns="http://www.w3.org/2000/svg">
<path d="M132 1H98H65L40 6L29 23L20 45V68L29 101H40L65 93L80 81L98 68L132 55L143 68V88L153 116L143 138L132 158L113 186H65H14V170L1 148L29 143M190 186V148L183 116V88M183 88V63V45V29V14V1H204L244 6H273H295M183 88H220H250H267H290H300" stroke="#266F86"/>
<path d="M217 164V187M237 170V175.5M237 187V175.5M237 175.5V164H249V170L237 175.5Z" stroke="black"/>
<path d="M239 175L250 187" stroke="black"/>
<path d="M282 185H263V176.5M263 176.5V168H282M263 176.5H282" stroke="black"/>
<path d="M127 183L134 174L141 183L134 191L127 183Z" stroke="black"/>
<path d="M148 192V185M159 178H148V185M148 185H153M163 185V178H171.5M163 185V192H171.5M163 185H170.5" stroke="black"/>
</svg>
